<?xml version="1.0" standalone="no"?><!DOCTYPE svg PUBLIC "-//W3C//DTD SVG 1.1//EN" "http://www.w3.org/Graphics/SVG/1.1/DTD/svg11.dtd"><svg t="1713247051870" class="icon" viewBox="0 0 1024 1024" version="1.1" xmlns="http://www.w3.org/2000/svg" p-id="27848" xmlns:xlink="http://www.w3.org/1999/xlink" width="200" height="200"><path d="M911.36 573.0816a40.96 40.96 0 0 1 40.6528 35.84l0.3072 5.12v245.3504a92.16 92.16 0 0 1-84.5824 91.8528l-7.5776 0.3072h-716.8a92.16 92.16 0 0 1-91.8528-84.5824L51.2 859.392v-245.3504a40.96 40.96 0 0 1 81.6128-5.12l0.3072 5.12v245.3504a10.24 10.24 0 0 0 7.5264 9.8816l2.7136 0.3584h716.8a10.24 10.24 0 0 0 9.8816-7.5264l0.3584-2.7136v-245.3504a40.96 40.96 0 0 1 40.96-40.96zM501.76 51.2a40.96 40.96 0 0 1 40.6528 35.84l0.3072 5.12-0.0512 490.3936 199.8336-153.1392a40.96 40.96 0 0 1 54.016 61.2864l-4.1984 3.6864-265.1136 203.3664a40.96 40.96 0 0 1-44.8512 3.2768l-5.12-3.3792-263.168-203.3152a40.96 40.96 0 0 1 45.4656-67.9424l4.608 3.072L460.8 581.3248 460.8 92.16a40.96 40.96 0 0 1 40.96-40.96z" fill="#4D6BFF" p-id="27849"></path></svg>