<?xml version="1.0" standalone="no"?><!DOCTYPE svg PUBLIC "-//W3C//DTD SVG 1.1//EN" "http://www.w3.org/Graphics/SVG/1.1/DTD/svg11.dtd"><svg t="1713246568479" class="icon" viewBox="0 0 1024 1024" version="1.1" xmlns="http://www.w3.org/2000/svg" p-id="17388" xmlns:xlink="http://www.w3.org/1999/xlink" width="200" height="200"><path d="M742.946133 417.5872h162.4064V334.4384h-162.4064v83.1488z m0-130.4576h162.4064V204.014933h-162.4064v83.114667z m0 262.144h162.4064v-83.114667h-162.4064v83.114667z" fill="#3EAD5F" p-id="17389"></path><path d="M987.204267 881.7664h-383.658667v-71.611733h93.354667v-83.114667h-93.320534v-47.3088h93.320534V596.5824h-93.320534v-47.3088h93.320534v-83.1488h-93.320534v-47.3088h93.320534V335.735467h-93.320534V288.426667h93.320534V205.312h-93.320534V133.700267h383.624534v748.066133zM342.698667 698.914133c-19.182933-49.8688-43.485867-97.1776-57.5488-149.6064-15.36 48.571733-38.365867 93.320533-56.251734 140.629334-25.6 0-51.165867-1.262933-76.731733-2.56 29.422933-60.074667 58.845867-120.183467 89.531733-178.9952-25.6-61.405867-54.9888-121.514667-81.851733-181.589334 25.6-1.297067 51.165867-2.56 76.731733-5.12 17.885867 46.045867 35.805867 92.0576 51.131734 140.663467 15.36-51.165867 38.365867-98.474667 57.5488-147.0464 26.862933-1.297067 52.4288-3.857067 79.291733-5.12-30.72 65.194667-62.6688 130.423467-93.354667 194.3552 31.982933 66.491733 65.194667 133.0176 97.1776 199.509333-30.685867-1.297067-57.5488-2.56-85.674666-5.12z m680.277333 88.234667V168.209067c-1.262933-20.48 0-42.1888-11.4688-60.074667-16.622933-11.537067-38.365867-10.24-58.845867-11.537067H603.579733V1.979733H534.528C356.7616 33.962667 179.029333 65.911467 0 96.597333v832.477867c177.732267 31.982933 354.2016 62.6688 531.968 94.6176h71.611733v-107.4176h361.8816c19.182933-1.262933 48.571733-1.262933 53.691734-25.565867 6.417067-33.245867 2.56-69.051733 3.857066-103.560533z" fill="#3EAD5F" p-id="17390"></path><path d="M742.946133 810.154667h162.4064V727.04h-162.4064v83.114667z m0-130.423467h162.4064v-83.1488h-162.4064v83.1488z" fill="#3EAD5F" p-id="17391"></path></svg>