<?xml version="1.0" standalone="no"?><!DOCTYPE svg PUBLIC "-//W3C//DTD SVG 1.1//EN" "http://www.w3.org/Graphics/SVG/1.1/DTD/svg11.dtd"><svg t="1714989804578" class="icon" viewBox="0 0 1638 1024" version="1.1" xmlns="http://www.w3.org/2000/svg" p-id="1614" xmlns:xlink="http://www.w3.org/1999/xlink" width="319.921875" height="200"><path d="M805.244343 1017.592686C371.858286 1016.978286 22.820571 986.609371 22.820571 867.971657c0-119.895771 356.5568-149.621029 796.408686-149.621028s796.379429 29.725257 796.379429 149.621028c0 118.637714-349.037714 149.006629-782.423772 149.621029z" fill="#F5F4F5" p-id="1615"></path><path d="M548.395886 32.182857h541.608228c10.152229 0 19.807086 4.271543 26.594743 11.790629L1392.64 349.184v487.2192a71.68 71.68 0 0 1-71.68 71.68h-1003.52a71.68 71.68 0 0 1-71.68-71.68V349.066971l276.041143-305.122742c6.787657-7.489829 16.442514-11.790629 26.594743-11.790629z" fill="#FFFFFF" p-id="1616"></path><path d="M1090.004114 17.846857H548.395886c-14.189714 0-27.706514 5.968457-37.215086 16.501029L231.424 343.566629v492.836571a86.016 86.016 0 0 0 86.016 86.016h1003.52a86.016 86.016 0 0 0 86.016-86.016V343.6544L1127.2192 34.347886a50.176 50.176 0 0 0-37.215086-16.530286z m0 28.672l3.013486 0.2048c4.973714 0.672914 9.537829 3.101257 12.931657 6.846172l272.354743 301.085257v481.748114a57.344 57.344 0 0 1-57.344 57.344h-1003.52l-4.271543-0.146286a57.344 57.344 0 0 1-53.072457-57.197714V354.596571l272.325486-300.997485a21.504 21.504 0 0 1 15.9744-7.080229h541.608228z" fill="#DBDBDB" p-id="1617"></path><path d="M317.44 908.0832a71.68 71.68 0 0 1-71.68-71.68V349.447314h249.943771a71.68 71.68 0 0 1 71.68 71.68v6.144a71.68 71.68 0 0 0 71.68 71.68h360.272458a71.68 71.68 0 0 0 71.68-71.68v-6.144a71.68 71.68 0 0 1 71.68-71.68H1392.64v486.955886a71.68 71.68 0 0 1-71.68 71.68h-1003.52z" fill="#FAFAFB" p-id="1618"></path><path d="M495.703771 335.111314H231.424v501.291886a86.016 86.016 0 0 0 86.016 86.016h1003.52a86.016 86.016 0 0 0 86.016-86.016V335.111314h-264.279771a86.016 86.016 0 0 0-86.016 86.016v6.144l-0.146286 4.242286a57.256229 57.256229 0 0 1-57.197714 53.101714H639.063771l-4.242285-0.146285a57.256229 57.256229 0 0 1-53.101715-57.197715v-6.144a86.016 86.016 0 0 0-86.016-86.016zM260.096 836.4032V363.754057h235.607771a57.344 57.344 0 0 1 57.344 57.344v6.173257a86.016 86.016 0 0 0 80.369372 85.840457l5.178514 0.175543h360.740572a86.016 86.016 0 0 0 85.840457-80.369371l0.175543-5.178514v-6.612115l0.146285-4.3008a57.344 57.344 0 0 1 57.197715-53.0432h235.607771v472.619886a57.344 57.344 0 0 1-57.344 57.344h-1003.52a57.344 57.344 0 0 1-57.344-57.344z" fill="#DBDBDB" p-id="1619"></path></svg>