<?xml version="1.0" standalone="no"?><!DOCTYPE svg PUBLIC "-//W3C//DTD SVG 1.1//EN" "http://www.w3.org/Graphics/SVG/1.1/DTD/svg11.dtd"><svg t="1712026975958" class="icon" viewBox="0 0 1024 1024" version="1.1" xmlns="http://www.w3.org/2000/svg" p-id="5281" xmlns:xlink="http://www.w3.org/1999/xlink" width="200" height="200"><path d="M699.12 592l-26.6 239.56L912 804.88l-69.28-69.32A395.997 395.997 0 0 0 912 512c0-220.914-179.086-400-400-400-22.091 0-40 17.909-40 40s17.909 40 40 40c176.731 0 320 143.269 320 320a316.761 316.761 0 0 1-46.92 165.84L699.12 592zM512 832c-176.731 0-320-143.269-320-320a316.761 316.761 0 0 1 46.92-165.84L324.88 432l26.6-239.56L112 219.12l69.28 69.32A396.002 396.002 0 0 0 112 512c0 220.914 179.086 400 400 400 22.091 0 40-17.909 40-40s-17.909-40-40-40z" fill="#000000" p-id="5282"></path></svg>